<?xml version="1.0" encoding="utf-8"?>
<!-- Generator: Adobe Illustrator 17.0.1, SVG Export Plug-In . SVG Version: 6.00 Build 0)  -->
<!DOCTYPE svg PUBLIC "-//W3C//DTD SVG 1.1//EN" "http://www.w3.org/Graphics/SVG/1.1/DTD/svg11.dtd">
<svg version="1.1" id="Layer_1" xmlns:sketch="http://www.bohemiancoding.com/sketch/ns"
	 xmlns="http://www.w3.org/2000/svg" xmlns:xlink="http://www.w3.org/1999/xlink" x="0px" y="0px" width="50px" height="40px"
	 viewBox="-9 -4 50 40" enable-background="new -9 -4 50 40" xml:space="preserve">
<title></title>
<g id="Icons_new_Arranged_Names">
	<g id="_x35_0_Cloud_Arrow_Up">
		<path id="Rectangle_1_copy_5" d="M28.466,14.625c-0.311-2.812-2.695-5-5.591-5c-1.322,0-2.537,0.456-3.497,1.219
			C18.293,7.245,14.952,4.625,11,4.625c-4.832,0-8.75,3.918-8.75,8.75c0,0.47,0.037,0.931,0.108,1.381
			C0.147,15.272-1.5,17.26-1.5,19.625c0,2.761,2.243,5,4.996,5H11v2.5H3.5c-4.141,0-7.5-3.358-7.5-7.5
			c0-2.771,1.509-5.198,3.753-6.496C-0.116,7.029,4.869,2.125,11,2.125c4.042,0,7.586,2.132,9.569,5.332
			c0.731-0.216,1.505-0.332,2.306-0.332c3.481,0,6.45,2.189,7.607,5.265C33.662,13.259,36,16.169,36,19.625
			c0,4.134-3.358,7.5-7.5,7.5H21v-2.5h7.504c2.759,0,4.996-2.244,4.996-5c0-2.761-2.243-5-4.996-5H28.466z M16,13.375l6.25,7.5H18.5
			v10h-5v-10H9.75L16,13.375z"/>
	</g>
</g>
</svg>
